<svg xmlns="http://www.w3.org/2000/svg" viewBox="0 0 201.06 159.64"><defs><style>.cls-1{fill:#318ba7;}</style></defs><title>资源 1医疗</title><g id="图层_2" data-name="图层 2"><g id="图层_1-2" data-name="图层 1"><path class="cls-1" d="M44.58,5.09C44.4,2.92,46.19,1.2,47.87.16,55-.14,62.15.13,69.28,0a5.07,5.07,0,0,1,5.54,5c0,6.57,0,13.14,0,19.72a10.07,10.07,0,0,1-.66,3.15c-1.08,1.25-2.51,2.43-4.27,2.28-7.41,0-14.83.13-22.23-.08-1.47-1.2-3.21-2.63-3.06-4.74C44.55,18.63,44.61,11.86,44.58,5.09Z"/><path class="cls-1" d="M125.21,5.1A5,5,0,0,1,130.66,0c6.76,0,13.54,0,20.3,0,2.64-.26,4.66,2.51,4.44,5,0,6.78,0,13.56,0,20.34.19,2.16-1.65,3.59-3.14,4.8-7.37.18-14.74,0-22.11,0a4.81,4.81,0,0,1-4.93-4.83C125.21,18.62,125.24,11.86,125.21,5.1Z"/><path class="cls-1" d="M87.52,16.07a5.22,5.22,0,0,1,4.81-3.52c4.9-.05,9.82,0,14.73,0,1,.1,2.24-.14,3.06.63,1.09,1,2.58,2.08,2.38,3.77,0,5.71,0,11.42,0,17.14a10.35,10.35,0,0,1-3,3.48q-9.54.2-19.09,0a10.48,10.48,0,0,1-3-3.49C87.48,28.07,87.29,22.06,87.52,16.07Z"/><path class="cls-1" d="M39.72,39.71c9.09-.28,18.21,0,27.31-.11,2.73.1,5.48-.21,8.2.13C79,43,82.74,46.44,86.28,50c2,2.25,4.84,3.79,6.61,6.3.08.72-.56,1.18-1,1.68a44.53,44.53,0,0,0-4.68,5c-2.91,3.29-6.3,6.14-8.95,9.66-5.5-5.2-10.73-10.68-16.14-16-1-.8-1.65-2.31-3.07-2.35-6.58,6.43-13,13-19.59,19.47-1.39,1.65-3.44,2.82-4.36,4.81l-.83.21c1.86.27,3.75,0,5.63.2l.37,1c0,19.76,0,39.51,0,59.27,13.44-.05,26.88.12,40.31-.09.06-4.23,0-8.45,0-12.68,4.37,3.14,8.11,7.1,11.94,10.88,5.38.07,10.78.1,16.16,0,1.58-.9,2.62-2.57,4.11-3.64,2.92-2.13,5.12-5.1,8-7.24.17,4.23,0,8.47.09,12.69,13.42.14,26.84.05,40.27,0,0-19.39,0-38.78,0-58.18.05-.69-.25-2.17.89-2.06,1.53,0,3.06,0,4.6-.12-.23-.06-.68-.21-.91-.28-.27-1.27-1.55-1.89-2.35-2.81-7.27-7.31-14.67-14.49-21.88-21.86q-7.27,7.27-14.57,14.52c-1.36,1.31-2.53,2.93-4.33,3.65a85.58,85.58,0,0,1-8.52-8.93c-2-2.16-4.24-4.05-6.08-6.32l.08-.82a89.64,89.64,0,0,1,8-7.46c2.51-2.54,5.09-5,7.66-7.48.78-.72,1.66-1.59,2.81-1.51,11.35,0,22.71,0,34.07,0a10,10,0,0,1,1.54,1c6.85,6.61,13.35,13.61,20.48,19.91,5.25,5.25,10.57,10.43,15.8,15.69.85,1,2.48,1.35,2.48,2.88-6.46,0-12.92,0-19.38.05q0,29.13,0,58.27c0,4,.1,8-.11,11.93-.89,1.53-1.43,3.23-2.33,4.75-1.26,1.46-2.52,3.13-4.45,3.71-1.84.89-3.73,2-5.86,1.84q-67.84.06-135.7,0c-6.31,0-12.53-5.06-12.89-11.54q0-34.44,0-68.88c-6.76-.33-13.56-.07-20.33-.13.19-2,2.33-2.75,3.57-4Q15.69,63,27.87,51a58,58,0,0,1,4.56-4.31C35,44.54,37.1,41.83,39.72,39.71Z"/><path class="cls-1" d="M96,59.86l1.72-.06a18.54,18.54,0,0,1,2.19,1.66l1.67.14c1.06-1.2,2.35-2.18,4-1.81,2.72,2.93,5.69,5.63,8.34,8.62,1.51,2,3.57,3.62,5.14,5.61a8.37,8.37,0,0,1,.1,2.83c-3.46,3.44-7,6.79-10.3,10.4.12-5.34,0-10.69.05-16-5.4,0-10.81-.06-16.21,0,0,5.19.11,10.39-.07,15.58-3.53-3.17-6.74-6.7-10.15-10,0-.93,0-1.86-.06-2.79,2.44-2.64,5-5.11,7.54-7.7A66.83,66.83,0,0,1,96,59.86Z"/><path class="cls-1" d="M78.53,78A3.93,3.93,0,0,1,82,79.05c3.1,3.11,6.23,6.18,9.28,9.34-5.29-.17-10.59-.06-15.88,0,0,5.34,0,10.69,0,16,5.34.15,10.67,0,16,.13-3.1,3.25-6.32,6.38-9.48,9.57-1,1.1-2.58.6-3.86.6-4.59-4.54-9.23-9-13.79-13.58,0-.58.06-1.15.1-1.71A18,18,0,0,0,66.07,97c0-.41-.13-1.21-.18-1.61a3.67,3.67,0,0,1-1.55-3.89c2-1.78,3.68-3.94,5.93-5.45C73,83.33,75.74,80.61,78.53,78Z"/><path class="cls-1" d="M120.2,78.54c1.06-.44,2.32-.12,3.45-.15a39.18,39.18,0,0,0,4.19,3.85q4.56,4.42,9.07,8.9c1.07,1,.38,2.76-.43,3.77s-.41,2.29-.24,3.43c.28.24.85.74,1.13,1,0,.57,0,1.16,0,1.74-4.42,4.31-8.77,8.71-13.21,13-.85,1-2.28.56-3.41.68-3.33-3.34-6.69-6.65-10-10,4.88,0,9.77,0,14.65,0l.75-.73c.14-5.22-.06-10.45.09-15.68-5.31,0-10.62,0-15.94,0C113.72,85.14,116.83,81.71,120.2,78.54Z"/><path class="cls-1" d="M82.47,116.24c3.28-3.39,6.69-6.64,10-10a5.85,5.85,0,0,1,.32,2.46c0,4.35,0,8.7,0,13,5.37.06,10.74,0,16.12.05.09-5.17,0-10.35.1-15.52,3.64,3.1,6.81,6.7,10.27,10,0,.94,0,1.89-.07,2.84-4.74,4.74-9.36,9.6-14.16,14.28a4.77,4.77,0,0,1-2.91-1.83c-2.2-.68-3.54,1.43-5.51,1.84-4.46-4.41-8.84-8.92-13.2-13.44C82.33,119,82.35,117.54,82.47,116.24Z"/></g></g></svg>