<svg xmlns="http://www.w3.org/2000/svg" viewBox="0 0 470.48 223.55"><defs><style>.cls-1,.cls-13{font-size:18px;font-family:FZCHSJW--GB1-0, FZCuHeiSongS-B-GB;}.cls-1{fill:#231815;}.cls-2,.cls-4,.cls-8{fill:#7a171c;}.cls-2{font-size:24px;}.cls-3,.cls-7{fill:#61c2d5;}.cls-3,.cls-4,.cls-5{font-size:21px;}.cls-6{fill:#040000;}.cls-9{fill:#7fd2dd;}.cls-10{fill:#fff;}.cls-11,.cls-12{fill:none;stroke:#231815;stroke-miterlimit:10;}.cls-12{stroke-dasharray:3 3;}</style></defs><title>资源 1人形</title><g id="图层_2" data-name="图层 2"><g id="图层_4" data-name="图层 4"><text class="cls-1" transform="translate(228.06 60.49)">截止2020年3月15日24时<tspan x="0" y="32.8">累计报告确诊病例 </tspan><tspan class="cls-2" x="149.13" y="32.8">80860 </tspan><tspan x="224.41" y="32.8">例</tspan><tspan x="0" y="64">累计治愈出院病例 </tspan><tspan class="cls-3" x="149.13" y="64">67749 </tspan><tspan x="215" y="64">例</tspan><tspan x="0" y="95.2" xml:space="preserve">现有确诊病例  </tspan><tspan class="cls-4" x="118.27" y="95.2">9898 </tspan><tspan x="172.16" y="95.2">例</tspan><tspan x="0" y="126.4" xml:space="preserve">累计死亡病例  </tspan><tspan class="cls-5" x="118.27" y="126.4">3213 </tspan><tspan x="172.16" y="126.4">例</tspan></text><circle class="cls-6" cx="154.82" cy="23.37" r="23.04"/><circle class="cls-7" cx="154.75" cy="23.04" r="23.04"/><rect class="cls-8" y="186.92" width="85.54" height="27.26"/><rect y="214.37" width="85.54" height="8.85"/><rect class="cls-9" y="0.74" width="85.54" height="186.62"/><path d="M195.24,60c.37-3.29-4.57-4-4.57-4q-17.64.38-35.86.43-19.12.06-37.64-.25a.72.72,0,0,0-.27-.08.8.8,0,0,0-.47.11,2.46,2.46,0,0,0-.55.06,2.85,2.85,0,0,0-1.63,1.17,3.3,3.3,0,0,0-.55,1.12l-.18,70.94c8,12.8,14.44.18,14.44.18v-55l4-.19.37,139.69c9,21,20.66.37,20.66.37l-.18-80.27,3.47.19.18,79.53c11.52,21,21.58.37,21.58.37l-.73-138.78,4.2-.18.92,55.22c6,8.59,13.53.18,13.53.18S194.88,63.27,195.24,60Z"/><path class="cls-7" d="M195.28,59.21c.36-3.3-4.57-4-4.57-4q-17.65.38-35.86.44-19.14.06-37.65-.25a.57.57,0,0,0-.26-.08.76.76,0,0,0-.48.11,2,2,0,0,0-.55.06,2.85,2.85,0,0,0-1.63,1.17,3.5,3.5,0,0,0-.55,1.12l-.18,71.18c8,12.84,14.44.18,14.44.18V73.88l4-.18.3,114.1H153l-.12-54.11,3.47.18.13,53.93H178l-.59-113,4.2-.18.92,55.4c6,8.62,13.53.18,13.53.18S194.91,62.51,195.28,59.21Z"/><polygon class="cls-8" points="153.06 186.52 131.88 186.52 131.95 213.79 153.21 213.79 153.06 186.52"/><polygon class="cls-8" points="178.1 186.52 156.21 186.52 156.28 213.79 178.26 213.79 178.1 186.52"/><line class="cls-10" x1="88.34" y1="214.22" x2="130.3" y2="214.22"/><line class="cls-11" x1="88.34" y1="214.22" x2="89.84" y2="214.22"/><line class="cls-12" x1="92.84" y1="214.22" x2="127.31" y2="214.22"/><line class="cls-11" x1="128.8" y1="214.22" x2="130.3" y2="214.22"/><line class="cls-10" x1="88.26" y1="187.32" x2="130.22" y2="187.32"/><line class="cls-11" x1="88.26" y1="187.32" x2="89.76" y2="187.32"/><line class="cls-12" x1="92.76" y1="187.32" x2="127.23" y2="187.32"/><line class="cls-11" x1="128.72" y1="187.32" x2="130.22" y2="187.32"/><text class="cls-13" transform="translate(14.27 100.91)">67749</text><text class="cls-13" transform="translate(18.86 206.97)">9898</text></g></g></svg>