<svg xmlns="http://www.w3.org/2000/svg" viewBox="0 0 466.88 199.97"><defs><style>.cls-1{fill:#2b7c9b;}.cls-2{fill:#319bd0;}.cls-3{fill:#308aa6;}.cls-4{font-size:14px;fill:#231815;font-family:FZCHSJW--GB1-0, FZCuHeiSongS-B-GB;}</style></defs><title>资源 1</title><g id="图层_2" data-name="图层 2"><g id="图层_7" data-name="图层 7"><polygon class="cls-1" points="238.58 37.89 179.5 27.76 192.07 0.08 238.58 37.89"/><rect class="cls-2" x="21.02" y="0.31" width="171.35" height="29.73" transform="translate(0.06 -0.38) rotate(0.21)"/><polygon class="cls-1" points="248.78 99.38 191.87 114 191.97 84.35 248.78 99.38"/><rect class="cls-2" x="11.55" y="84.02" width="180.38" height="29.73" transform="translate(0.36 -0.36) rotate(0.21)"/><polygon class="cls-1" points="244.8 126.66 190.94 156.4 183.28 126.78 244.8 126.66"/><rect class="cls-2" x="5.44" y="126.45" width="185.95" height="29.73" transform="translate(0.51 -0.35) rotate(0.21)"/><polygon class="cls-1" points="239.62 168.8 190.26 199.95 181.27 170.22 239.62 168.8"/><rect class="cls-2" x="0.05" y="169.9" width="191.22" height="29.73" transform="translate(0.66 -0.34) rotate(0.21)"/><polygon class="cls-1" points="244.99 72.44 191.35 42.31 183.47 71.87 244.99 72.44"/><rect class="cls-2" x="17.75" y="41.9" width="174.95" height="29.73" transform="translate(0.2 -0.38) rotate(0.21)"/><path class="cls-3" d="M310.4,25.4c-.18-2.17,1.61-3.89,3.29-4.93,7.13-.3,14.28,0,21.41-.12a5.07,5.07,0,0,1,5.54,5c0,6.58,0,13.15,0,19.72a10.07,10.07,0,0,1-.66,3.15c-1.08,1.25-2.5,2.43-4.27,2.28-7.41,0-14.82.13-22.23-.08-1.47-1.19-3.21-2.63-3.06-4.74C310.37,38.94,310.43,32.17,310.4,25.4Z"/><path class="cls-3" d="M391,25.41c-.25-2.88,2.63-5.38,5.44-5.07,6.77,0,13.54,0,20.3,0,2.64-.25,4.67,2.52,4.44,5,0,6.78,0,13.56,0,20.34.19,2.16-1.65,3.59-3.14,4.8-7.37.18-14.74.05-22.11,0a4.8,4.8,0,0,1-4.93-4.83C391,38.93,391.06,32.17,391,25.41Z"/><path class="cls-3" d="M353.34,36.38a5.22,5.22,0,0,1,4.81-3.52c4.91,0,9.82,0,14.73,0,1,.1,2.25-.13,3.06.64,1.09,1,2.58,2.07,2.38,3.76.05,5.71,0,11.43,0,17.14a10.35,10.35,0,0,1-3,3.48q-9.54.2-19.09,0a10.6,10.6,0,0,1-3-3.49C353.31,48.38,353.11,42.37,353.34,36.38Z"/><path class="cls-3" d="M305.54,60c9.09-.28,18.21,0,27.31-.11,2.73.1,5.49-.21,8.2.13,3.79,3.3,7.51,6.71,11.05,10.3,2.06,2.25,4.84,3.79,6.62,6.3.07.72-.57,1.18-1,1.68a44.53,44.53,0,0,0-4.68,5c-2.91,3.29-6.3,6.14-8.95,9.67-5.5-5.21-10.73-10.69-16.14-16-1-.8-1.65-2.31-3.07-2.34-6.58,6.42-13,13-19.59,19.46C303.92,95.8,301.87,97,301,99l-.84.2c1.87.27,3.75,0,5.63.2l.37,1c0,19.76,0,39.51,0,59.27,13.43-.05,26.87.12,40.3-.09.06-4.22,0-8.45.05-12.67,4.37,3.13,8.12,7.09,11.94,10.87,5.39.08,10.78.1,16.16,0,1.58-.9,2.62-2.57,4.12-3.63,2.91-2.14,5.11-5.1,8-7.24.17,4.22,0,8.46.09,12.69,13.42.14,26.85,0,40.27,0,0-19.4,0-38.79,0-58.19,0-.68-.25-2.17.89-2.06,1.53,0,3.07,0,4.6-.12-.23-.06-.68-.2-.91-.28-.26-1.27-1.55-1.89-2.35-2.81-7.27-7.3-14.67-14.49-21.88-21.86q-7.27,7.28-14.57,14.52c-1.36,1.31-2.53,2.93-4.33,3.66A85.68,85.68,0,0,1,380,83.51c-2-2.15-4.23-4.05-6.08-6.31l.08-.83a89.64,89.64,0,0,1,8-7.46c2.52-2.53,5.09-5,7.66-7.48.78-.72,1.66-1.58,2.81-1.51,11.36,0,22.72,0,34.08,0a11.31,11.31,0,0,1,1.53,1c6.85,6.61,13.35,13.61,20.48,19.91,5.26,5.25,10.57,10.43,15.81,15.7.85,1,2.47,1.34,2.47,2.87-6.46,0-12.92,0-19.38.05q0,29.13,0,58.27c0,4,.1,8-.11,11.93-.89,1.53-1.43,3.24-2.33,4.76-1.26,1.45-2.52,3.13-4.44,3.71-1.85.88-3.74,2-5.87,1.84q-67.85,0-135.7,0c-6.31,0-12.53-5.06-12.89-11.54q0-34.44,0-68.88c-6.77-.33-13.57-.07-20.34-.13.19-2,2.33-2.75,3.58-4q12.11-12.07,24.29-24.09A58,58,0,0,1,298.25,67C300.86,64.86,302.93,62.14,305.54,60Z"/><path class="cls-3" d="M361.81,80.17l1.71-.06a18.54,18.54,0,0,1,2.19,1.66l1.67.14c1.06-1.2,2.35-2.18,4-1.8,2.73,2.92,5.69,5.63,8.34,8.62,1.51,2,3.57,3.61,5.14,5.6a8.64,8.64,0,0,1,.11,2.83c-3.47,3.44-7,6.79-10.31,10.4.12-5.34,0-10.69.05-16-5.4,0-10.8-.06-16.21,0,0,5.19.11,10.4-.07,15.59-3.53-3.18-6.74-6.7-10.15-10,0-.93-.05-1.86-.06-2.78,2.44-2.65,5.05-5.12,7.54-7.71A66.84,66.84,0,0,1,361.81,80.17Z"/><path class="cls-3" d="M344.35,98.26a3.93,3.93,0,0,1,3.47,1.11c3.1,3.1,6.23,6.18,9.29,9.33-5.3-.17-10.6-.06-15.89,0,0,5.35,0,10.69,0,16,5.34.14,10.68,0,16,.13-3.1,3.24-6.32,6.37-9.48,9.56-1,1.1-2.58.6-3.85.6-4.6-4.53-9.24-9-13.8-13.58,0-.58.07-1.14.1-1.71a19,19,0,0,0,1.72-2.39c0-.41-.14-1.21-.18-1.61a3.66,3.66,0,0,1-1.56-3.88c2-1.79,3.68-4,5.93-5.46C338.84,103.64,341.56,100.92,344.35,98.26Z"/><path class="cls-3" d="M386,98.85c1.06-.44,2.32-.12,3.46-.14a39,39,0,0,0,4.18,3.84q4.56,4.42,9.07,8.9c1.07,1,.38,2.77-.42,3.77s-.42,2.3-.25,3.43c.29.24.85.75,1.14,1,0,.57,0,1.16,0,1.74-4.42,4.32-8.76,8.71-13.21,13-.85,1-2.28.56-3.41.68-3.33-3.34-6.69-6.65-10-10,4.88,0,9.77,0,14.65,0l.75-.73c.14-5.22-.05-10.45.09-15.68-5.31,0-10.62,0-15.94,0C379.54,105.45,382.65,102,386,98.85Z"/><path class="cls-3" d="M348.29,136.55c3.28-3.38,6.69-6.64,10-10a5.69,5.69,0,0,1,.32,2.46c0,4.35,0,8.7,0,13.05,5.38.05,10.75,0,16.12,0,.09-5.17,0-10.35.1-15.52,3.64,3.1,6.81,6.71,10.27,10,0,.95,0,1.89-.07,2.84-4.74,4.74-9.36,9.6-14.16,14.28a4.7,4.7,0,0,1-2.9-1.83c-2.21-.68-3.55,1.44-5.52,1.85-4.46-4.42-8.83-8.93-13.2-13.45C348.15,139.3,348.17,137.85,348.29,136.55Z"/><text class="cls-4" transform="translate(30.85 19.62)">2017年———986649个</text><text class="cls-4" transform="translate(30.85 62.14)">2018年———997433个</text><text class="cls-4" transform="translate(30.85 104.65)">2019年———1007579个</text><text class="cls-4" transform="translate(30.85 147.17)">2020年———1022922个</text><text class="cls-4" transform="translate(30.85 189.68)">2021年———1030935个</text></g></g></svg>