<svg xmlns="http://www.w3.org/2000/svg" viewBox="0 0 595.26 477.37"><defs><style>.cls-1{fill:#2ca6e0;opacity:0.35;}.cls-2{font-size:24px;fill:#231815;font-family:FZCHSJW--GB1-0, FZCuHeiSongS-B-GB;}.cls-3{fill:#4380ed;}.cls-4,.cls-5{fill:#a52f13;}.cls-4{font-size:25px;}.cls-5{font-size:26px;}.cls-6{fill:#7bb6de;}.cls-7{fill:#4b5a65;}.cls-8{fill:#add9fd;}.cls-9{fill:#526573;}.cls-10{fill:#add9fe;}.cls-11{fill:#c8e6ff;}.cls-12{fill:#94c8ef;}.cls-13{fill:#fefffe;}.cls-14{fill:#c8e6fe;}.cls-15{fill:#7ab6de;}.cls-16{fill:#fdcb3d;}</style></defs><title>资源 2针</title><g id="图层_2" data-name="图层 2"><g id="背景"><rect class="cls-1" y="248.79" width="595.26" height="228.57"/></g><g id="图层_6" data-name="图层 6"><text class="cls-2" transform="translate(267.7 155.83)">截至<tspan class="cls-3" x="48" y="0">2022年12月23日</tspan><tspan x="0" y="57.6" xml:space="preserve">     31个省（自治区、直辖市）</tspan><tspan x="0" y="115.2">和新疆生产建设兵团累计报告</tspan><tspan x="0" y="172.8" xml:space="preserve">   接种新冠病毒疫苗</tspan><tspan x="0" y="232.8" xml:space="preserve">      </tspan><tspan class="cls-4" x="41.06" y="232.8"> </tspan><tspan class="cls-5" x="48.19" y="232.8">346967.0万</tspan><tspan x="185.4" y="232.8">剂次！</tspan></text></g><g id="针"><path class="cls-6" d="M209.64,423.56a45.11,45.11,0,0,1-.27,5.19c-.94,1.91-3.28,1.9-5.12,2q-15.28-.08-30.6,0a60.18,60.18,0,0,1-6.26-.8c-9.38-.64-18.7,1.33-28.08,1-6.27-.12-12.57.28-18.83-.31-1.08-2.91-1.89-6.45.42-9,6.78.25,13.62.54,20.38-.21a7.47,7.47,0,0,0,7.2-3.34c-.42,1-.91,2-1.41,3.05,9.69.1,19.4-.32,29.1.07,1.94.13,4-.07,5.32-1.66,3.56,3.69,8.88,2,13.38,2.3C199.81,422.11,205.24,420.6,209.64,423.56Z"/><path class="cls-6" d="M234,354.29c-1.6,1.37-3,3.52-5.42,3.17-13.94-.11-27.89.09-41.82-.13-1.64,0-3.06.89-4.51,1.52-12-.49-24,.35-35.95-.27-3.75-1.85-8-1.19-12-1.25-10.82,0-21.64-.05-32.47,0a14.21,14.21,0,0,1-4.59-.56c-1.87-1.4-2.16-3.9-3-5.94.94-1,1.88-1.9,2.82-2.85,4.67.79,9.41.36,14.12.44,3.75-.06,7.51.19,11.25,0,2,0,3.14-1.8,4.53-2.9.06.47.17,1.42.23,1.89,7,.61,14.08,0,21.11.41,11.52-.16,23,.12,34.56-.14,6.7.09,13.4.05,20.1,0,1.62.6,3.21,1.49,5,1.4,5.83-.14,11.67-.05,17.5-.14a19.42,19.42,0,0,1,6.49.69A18.8,18.8,0,0,1,234,354.29Z"/><path class="cls-7" d="M210.3,423.84l-.66-.28c-4.4-3-9.83-1.45-14.77-1.79-4.5-.34-9.82,1.39-13.38-2.3-.57-4.26-.32-8.56-.35-12.83,0-14.36,0-28.72,0-43.07a14.28,14.28,0,0,1,1.16-4.72c1.45-.63,2.87-1.55,4.51-1.52,13.93.22,27.88,0,41.82.13,2.4.35,3.82-1.8,5.42-3.17l.09.69c-1.78,2.3-4.19,5.06-7.37,4.94-13.32-.06-26.64,0-40,0-1.58-.14-3.81.35-3.49,2.42-.1,17.91,0,35.8-.07,53.71,0,1.28-.11,3.49,1.7,3.54,6.43.29,12.9-.05,19.34.12C207,419.58,208.64,422.08,210.3,423.84Z"/><path class="cls-8" d="M181.49,419.47c-1.32,1.59-3.38,1.79-5.32,1.66-9.7-.39-19.41,0-29.1-.07.5-1,1-2,1.41-3.05-.46-15.24-.1-30.48-.25-45.71-.2-4.62,1.12-9.72-1.93-13.72,12,.62,24-.22,35.95.27a14.28,14.28,0,0,0-1.16,4.72c.08,14.35,0,28.71,0,43.07C181.17,410.91,180.92,415.21,181.49,419.47Z"/><path class="cls-9" d="M235.36,352.9c-.31.52-1,1.56-1.27,2.08l-.09-.69a18.8,18.8,0,0,0-2-4.61,19.42,19.42,0,0,0-6.49-.69c-5.83.09-11.67,0-17.5.14-1.78.09-3.37-.8-5-1.4-2.11-3.57-1.35-7.74-1.41-11.66q0-89.28,0-178.58c.07-3.05-.94-6.65-4.15-7.7-4.45-1.35-9.26.4-13.75-.91-1.45-.63-2.38-2-3.51-3.08.46-3.84-.23-7.71.07-11.56a7.93,7.93,0,0,1,7.88-4.55c-1.68,1.83-4.24,2.61-5.82,4.48a44.83,44.83,0,0,0,.08,11.63l1.09,1.14c4.17.84,8.53-.47,12.62.86a12.19,12.19,0,0,1,7.68,10.93c0,6.45.07,12.92-.35,19.36q0,82.42,0,164.84c0,1.82.45,4.18,2.76,4,7.48.36,15,0,22.45.14C231.87,347.27,233.63,350.53,235.36,352.9Z"/><path class="cls-10" d="M203,347.73c-6.7,0-13.4.06-20.1,0-.44-13.23,0-26.49-.19-39.72-.16-1,0-2.29-.88-3-5.09-1.33-10.57.69-15.56-1.16a22.21,22.21,0,0,1-2.83-4.55c1.29-1.84,2.13-4.53,4.58-5,4.56-1,9.29.36,13.84-.65,1.05-.86.64-2.48.85-3.69-.08-5.72.1-11.46-.17-17.18-5-1.42-10.25.39-15.19-1.11-3.68-1.53-4.54-6.88-1.13-9.13,4.87-2.38,10.51-.08,15.61-1.41,1.08-1.09.72-2.86.9-4.26-.12-5.7.12-11.42-.3-17.13-4.37-.15-8.75.29-13.12,0-4,0-7.23-5.56-3.92-8.59,4.55-4.46,11.75-.28,17-2.84.65-3.12.28-6.32.31-9.48-.1-3.55.4-7.17-.37-10.68-4.62-2.11-10.16.33-15-1.33-2.07-1.1-3.93-3.66-3.14-6.09.86-1.86,2.41-3.68,4.52-4,3.51-.62,7.07-.05,10.6-.13,1.12-.15,3.15.23,3.17-1.43.51-3.54.14-7.13.21-10.69-.11-4.92.32-9.85-.25-14.75-6.65-.48-13.32-.25-20-.26-4.87.31-9.78-.47-14.62.33.17-4.87-.7-9.88.59-14.67,1.23-2.75,3.44-4.91,5-7.45,8.78.23,17.57.39,26.36.25.12-.66.25-1.33.35-2,1.13,1.07,2.06,2.45,3.51,3.08,4.49,1.31,9.3-.44,13.75.91,3.21,1.05,4.22,4.65,4.15,7.7q.09,89.28,0,178.58C201.64,340,200.88,344.16,203,347.73Z"/><path class="cls-11" d="M182.89,347.7c-11.52.26-23,0-34.56.14a25.22,25.22,0,0,1-.73-4.89c.32-14.71,0-29.43.19-44.14,5.16,1,10.43.58,15.64.43a22.21,22.21,0,0,0,2.83,4.55c5,1.85,10.47-.17,15.56,1.16.87.74.72,2,.88,3C182.85,321.21,182.45,334.47,182.89,347.7Z"/><path class="cls-12" d="M148.33,347.84c-7-.45-14.1.2-21.11-.41-.06-.47-.17-1.42-.23-1.89a93.23,93.23,0,0,1-.26-9.46q0-89.31-.2-178.59c-.1-3.51,1.45-7.8,5.36-8.44,5-.73,10.18.62,15.1-1a55.49,55.49,0,0,1,6.44-.49c-1.6,2.54-3.81,4.7-5,7.45-1.29,4.79-.42,9.8-.59,14.67q-.09,64.58,0,129.15c-.15,14.71.13,29.43-.19,44.14A25.22,25.22,0,0,0,148.33,347.84Z"/><path class="cls-13" d="M182.7,289.86c-.21,1.21.2,2.83-.85,3.69-4.55,1-9.28-.35-13.84.65-2.45.51-3.29,3.2-4.58,5-5.21.15-10.48.56-15.64-.43q-.06-64.59,0-129.15c4.84-.8,9.75,0,14.62-.33,6.66,0,13.33-.22,20,.26.57,4.9.14,9.83.25,14.75-.07,3.56.3,7.15-.21,10.69,0,1.66-2.05,1.28-3.17,1.43-3.53.08-7.09-.49-10.6.13-2.11.31-3.66,2.13-4.52,4-.79,2.43,1.07,5,3.14,6.09,4.83,1.66,10.37-.78,15,1.33.77,3.51.27,7.13.37,10.68,0,3.16.34,6.36-.31,9.48-5.21,2.56-12.41-1.62-17,2.84-3.31,3-.11,8.56,3.92,8.59,4.37.34,8.75-.1,13.12,0,.42,5.71.18,11.43.3,17.13-.18,1.4.18,3.17-.9,4.26-5.1,1.33-10.74-1-15.61,1.41-3.41,2.25-2.55,7.6,1.13,9.13,4.94,1.5,10.21-.31,15.19,1.11C182.8,278.4,182.62,284.14,182.7,289.86Z"/><path class="cls-9" d="M179.15,120.31c-9.41.39-18.86-.27-28.26.33.86-1.7,2.06-3.39,1.93-5.39,0-7.27-.18-14.56,0-21.83,0-4,4.65-4.88,7.64-5.89,4.19.3,8.61-.38,12.52,1.53-1-1.13-1.89-2.27-2.74-3.48,2.31,2.88,7.3,3.6,7.8,7.77.28,7.85-.2,15.77,0,23.61C178.41,118.09,178.78,119.21,179.15,120.31Z"/><path class="cls-14" d="M180.14,145.8c-.1.66-.23,1.33-.35,2-8.79.14-17.58,0-26.36-.25A55.49,55.49,0,0,0,147,148a27,27,0,0,0,.06-16.17c5.74-.55,11.49-.18,17.23-.28,5.44.09,10.87-.26,16.29.23-.13.8-.25,1.62-.36,2.43C179.91,138.09,180.6,142,180.14,145.8Z"/><path class="cls-14" d="M178.21,120.71c-9.41.4-18.85-.27-28.25.33.85-1.7,2-3.39,1.93-5.39,0-7.27-.19-14.56,0-21.83,0-4,4.66-4.88,7.65-5.89,4.18.3,8.61-.38,12.51,1.53-1-1.13-1.89-2.27-2.74-3.48,2.31,2.89,7.3,3.6,7.81,7.77.27,7.85-.2,15.77,0,23.61C177.47,118.5,177.85,119.61,178.21,120.71Z"/><path class="cls-15" d="M190.25,127c-.75.9-1.46,1.81-2.16,2.73a7.93,7.93,0,0,0-7.88,4.55c.11-.81.23-1.63.36-2.43-5.42-.49-10.85-.14-16.29-.23-5.74.1-11.49-.27-17.23.28a9.62,9.62,0,0,0-6.08-2,11.88,11.88,0,0,1-.75-7.8c3.26-.28,6.56-.18,9.74-1.06,9.4-.6,18.84.07,28.25-.33-.36-1.1-.74-2.21-1.06-3.35,1.66,4.34,6.57,4.48,10.46,4.33C189.29,122.92,189.38,125.22,190.25,127Z"/><path class="cls-9" d="M173.67,89.15c-3.9-1.91-8.33-1.23-12.52-1.53,1.13-4.42.57-9,.65-13.5q0-34.65,0-69.29c.16-1.39-.12-3.14,1.1-4.11a38.81,38.81,0,0,1,5.6-.72,7.08,7.08,0,0,1,2.2,6.06c-.06,12.49,0,25-.06,37.46,0,3.31,1.16,6.57.48,9.86-1,7.29-.2,14.67-.45,22a73.72,73.72,0,0,0,.3,10.3C171.78,86.88,172.71,88,173.67,89.15Z"/><path class="cls-16" d="M172.61,89.52c-3.9-1.9-8.33-1.22-12.51-1.52,1.12-4.42.56-9,.65-13.5q0-34.65-.05-69.3c.17-1.38-.12-3.13,1.1-4.11a39.15,39.15,0,0,1,5.6-.71,7,7,0,0,1,2.2,6.05c-.06,12.49,0,25-.06,37.47,0,3.3,1.17,6.56.49,9.85-1,7.29-.21,14.67-.45,22A72.12,72.12,0,0,0,169.87,86,44.13,44.13,0,0,0,172.61,89.52Z"/></g></g></svg>